<svg width="48" height="48" viewBox="0 0 48 48" fill="none" xmlns="http://www.w3.org/2000/svg">
<path d="M16 0.5H32C40.5604 0.5 47.5 7.43959 47.5 16V32C47.5 40.5604 40.5604 47.5 32 47.5H16C7.43959 47.5 0.5 40.5604 0.5 32V16C0.5 7.43959 7.43959 0.5 16 0.5Z" fill="white"/>
<path d="M16 0.5H32C40.5604 0.5 47.5 7.43959 47.5 16V32C47.5 40.5604 40.5604 47.5 32 47.5H16C7.43959 47.5 0.5 40.5604 0.5 32V16C0.5 7.43959 7.43959 0.5 16 0.5Z" stroke="#EDEDED"/>
<path d="M16.4555 25.88L16.0744 25.5563H16.0744L16.4555 25.88ZM17.3348 23.8385L16.8379 23.7822L17.3348 23.8385ZM30.6652 23.8385L31.1621 23.7822L30.6652 23.8385ZM31.5445 25.88L31.9256 25.5563L31.5445 25.88ZM30.3204 20.794L29.8235 20.8503V20.8503L30.3204 20.794ZM17.6796 20.794L18.1765 20.8503L17.6796 20.794ZM27.4682 31.1755C27.5651 30.9169 27.434 30.6287 27.1755 30.5318C26.9169 30.4349 26.6287 30.566 26.5318 30.8245L27 31L27.4682 31.1755ZM21.4682 30.8245C21.3713 30.566 21.0831 30.4349 20.8245 30.5318C20.566 30.6287 20.4349 30.9169 20.5318 31.1755L21 31L21.4682 30.8245ZM30.1699 29V28.5H17.8301V29V29.5H30.1699V29ZM30.3204 20.794L29.8235 20.8503L30.1684 23.8948L30.6652 23.8385L31.1621 23.7822L30.8172 20.7378L30.3204 20.794ZM17.3348 23.8385L17.8316 23.8948L18.1765 20.8503L17.6796 20.794L17.1828 20.7378L16.8379 23.7822L17.3348 23.8385ZM16.4555 25.88L16.8365 26.2038C17.3886 25.554 17.7349 24.7486 17.8316 23.8948L17.3348 23.8385L16.8379 23.7822C16.7633 24.4413 16.4963 25.0598 16.0744 25.5563L16.4555 25.88ZM30.6652 23.8385L30.1684 23.8948C30.2651 24.7486 30.6114 25.554 31.1635 26.2038L31.5445 25.88L31.9256 25.5563C31.5037 25.0598 31.2367 24.4413 31.1621 23.7822L30.6652 23.8385ZM17.8301 29V28.5C16.7158 28.5 16.0602 27.1175 16.8365 26.2038L16.4555 25.88L16.0744 25.5563C14.784 27.0752 15.8058 29.5 17.8301 29.5V29ZM30.1699 29V29.5C32.1942 29.5 33.216 27.0752 31.9256 25.5563L31.5445 25.88L31.1635 26.2038C31.9398 27.1175 31.2842 28.5 30.1699 28.5V29ZM30.3204 20.794L30.8172 20.7378C30.4157 17.1934 27.4949 14.5 24 14.5V15V15.5C26.9632 15.5 29.4767 17.7883 29.8235 20.8503L30.3204 20.794ZM17.6796 20.794L18.1765 20.8503C18.5233 17.7883 21.0368 15.5 24 15.5V15V14.5C20.5051 14.5 17.5843 17.1934 17.1828 20.7378L17.6796 20.794ZM27 31L26.5318 30.8245C26.1711 31.787 25.1847 32.5 24 32.5V33V33.5C25.5853 33.5 26.9555 32.5434 27.4682 31.1755L27 31ZM24 33V32.5C22.8153 32.5 21.8289 31.787 21.4682 30.8245L21 31L20.5318 31.1755C21.0445 32.5434 22.4147 33.5 24 33.5V33Z" fill="#04090D"/>
</svg>
