<svg width="50" height="50" viewBox="0 0 50 50" fill="none" xmlns="http://www.w3.org/2000/svg">
<rect width="50" height="50" rx="25" fill="white" fill-opacity="0.1"/>
<path d="M31.25 32.5001C29.8625 32.5001 28.75 33.6126 28.75 35.0001C28.75 35.6632 29.0134 36.299 29.4822 36.7679C29.9511 37.2367 30.587 37.5001 31.25 37.5001C31.913 37.5001 32.5489 37.2367 33.0178 36.7679C33.4866 36.299 33.75 35.6632 33.75 35.0001C33.75 34.3371 33.4866 33.7012 33.0178 33.2324C32.5489 32.7635 31.913 32.5001 31.25 32.5001ZM11.25 12.5001V15.0001H13.75L18.25 24.4876L16.55 27.5501C16.3625 27.9001 16.25 28.3126 16.25 28.7501C16.25 29.4132 16.5134 30.049 16.9822 30.5179C17.4511 30.9867 18.087 31.2501 18.75 31.2501H33.75V28.7501H19.275C19.1921 28.7501 19.1126 28.7172 19.054 28.6586C18.9954 28.6 18.9625 28.5205 18.9625 28.4376C18.9625 28.3751 18.975 28.3251 19 28.2876L20.125 26.2501H29.4375C30.375 26.2501 31.2 25.7251 31.625 24.9626L36.1 16.8751C36.1875 16.6751 36.25 16.4626 36.25 16.2501C36.25 15.9186 36.1183 15.6007 35.8839 15.3662C35.6495 15.1318 35.3315 15.0001 35 15.0001H16.5125L15.3375 12.5001M18.75 32.5001C17.3625 32.5001 16.25 33.6126 16.25 35.0001C16.25 35.6632 16.5134 36.299 16.9822 36.7679C17.4511 37.2367 18.087 37.5001 18.75 37.5001C19.413 37.5001 20.0489 37.2367 20.5178 36.7679C20.9866 36.299 21.25 35.6632 21.25 35.0001C21.25 34.3371 20.9866 33.7012 20.5178 33.2324C20.0489 32.7635 19.413 32.5001 18.75 32.5001Z" fill="white"/>
</svg>
