<svg width="45" height="45" viewBox="0 0 45 45" fill="none" xmlns="http://www.w3.org/2000/svg">
<path d="M12.1553 0.589111H32.2061C38.5294 0.589111 43.6553 5.71502 43.6553 12.0383V32.0891C43.6553 38.4124 38.5294 43.5383 32.2061 43.5383H12.1553C5.83197 43.5383 0.706055 38.4124 0.706055 32.0891V12.0383C0.706055 5.71502 5.83197 0.589112 12.1553 0.589111Z" stroke="#EDEDED" stroke-width="1.10128"/>
<path d="M15.7568 18.3931V27.5704C15.7568 29.5978 17.4004 31.2413 19.4278 31.2413H24.9342C26.9616 31.2413 28.6051 29.5978 28.6051 27.5704V18.3931M24.0164 21.1463V26.6527M20.3455 21.1463L20.3455 26.6527M25.8519 15.6399L24.5613 13.704C24.2209 13.1934 23.6478 12.8867 23.0341 12.8867H21.3278C20.7141 12.8867 20.141 13.1934 19.8006 13.704L18.51 15.6399M25.8519 15.6399H18.51M25.8519 15.6399H30.4405M18.51 15.6399H13.9214" stroke="#FF2020" stroke-width="1.10128" stroke-linecap="round" stroke-linejoin="round"/>
</svg>
