<svg width="45" height="45" viewBox="0 0 45 45" fill="none" xmlns="http://www.w3.org/2000/svg">
<path d="M12.8887 0.589111H32.9395C39.2628 0.589111 44.3887 5.71502 44.3887 12.0383V32.0891C44.3887 38.4124 39.2628 43.5383 32.9395 43.5383H12.8887C6.56536 43.5383 1.43945 38.4124 1.43945 32.0891V12.0383C1.43945 5.71502 6.56536 0.589112 12.8887 0.589111Z" stroke="#EDEDED" stroke-width="1.10128"/>
<path d="M32.0914 22.064V27.5704C32.0914 29.5978 30.4479 31.2413 28.4205 31.2413H17.4077C15.3803 31.2413 13.7368 29.5978 13.7368 27.5704V16.5576C13.7368 14.5302 15.3803 12.8867 17.4077 12.8867H22.9141M26.2972 14.7431C26.2972 14.7431 26.2972 16.0557 27.6098 17.3683C28.9225 18.6809 30.2351 18.6809 30.2351 18.6809M20.3029 25.7254L23.0594 25.3316C23.457 25.2748 23.8255 25.0906 24.1095 24.8065L31.5477 17.3683C32.2727 16.6434 32.2727 15.468 31.5477 14.7431L30.2351 13.4304C29.5102 12.7055 28.3348 12.7055 27.6098 13.4304L20.1716 20.8687C19.8876 21.1527 19.7034 21.5211 19.6466 21.9188L19.2528 24.6753C19.1653 25.2878 19.6903 25.8129 20.3029 25.7254Z" stroke="#04090D" stroke-width="1.10128" stroke-linecap="round"/>
</svg>
