<svg width="45" height="45" viewBox="0 0 45 45" fill="none" xmlns="http://www.w3.org/2000/svg">
<path d="M12 0.589355H32.0508C38.3741 0.589355 43.5 5.71527 43.5 12.0386V32.0894C43.5 38.4127 38.3741 43.5386 32.0508 43.5386H12C5.67669 43.5386 0.550781 38.4127 0.550781 32.0894V12.0386C0.550781 5.71527 5.67669 0.589356 12 0.589355Z" stroke="#EDEDED" stroke-width="1.10128"/>
<path d="M30.4051 20.0935C31.4693 21.2132 31.4693 22.9143 30.4051 24.034C28.6102 25.9225 25.5276 28.4879 22.0259 28.4879C18.5243 28.4879 15.4417 25.9225 13.6468 24.034C12.5826 22.9143 12.5826 21.2132 13.6468 20.0935C15.4417 18.205 18.5243 15.6396 22.0259 15.6396C25.5276 15.6396 28.6102 18.205 30.4051 20.0935Z" stroke="#04090D" stroke-width="1.10128"/>
<path d="M24.7791 22.0638C24.7791 23.5843 23.5465 24.817 22.0259 24.817C20.5054 24.817 19.2728 23.5843 19.2728 22.0638C19.2728 20.5432 20.5054 19.3106 22.0259 19.3106C23.5465 19.3106 24.7791 20.5432 24.7791 22.0638Z" stroke="#04090D" stroke-width="1.10128"/>
</svg>
