<svg width="60" height="60" viewBox="0 0 60 60" fill="none" xmlns="http://www.w3.org/2000/svg">
<rect width="60" height="60" rx="30" fill="white"/>
<path d="M25.4486 34.7506C28.0436 34.7506 30.1474 32.6469 30.1474 30.0518C30.1474 27.4568 28.0436 25.353 25.4486 25.353C22.8535 25.353 20.7498 27.4568 20.7498 30.0518C20.7498 32.6469 22.8535 34.7506 25.4486 34.7506Z" fill="black"/>
<path d="M18.001 31.1663C18.0002 31.2241 17.9998 31.2821 17.9998 31.3403C17.9998 37.7799 23.2201 43.0003 29.6598 43.0003C36.0994 43.0003 41.3197 37.7799 41.3197 31.3403C41.3197 31.2821 41.3193 31.2241 41.3185 31.1663H18.001Z" fill="black"/>
<path d="M35.3677 28.1376C36.521 28.1376 37.456 27.2027 37.456 26.0493C37.456 24.8959 36.521 23.9609 35.3677 23.9609C34.2143 23.9609 33.2793 24.8959 33.2793 26.0493C33.2793 27.2027 34.2143 28.1376 35.3677 28.1376Z" fill="black"/>
<path d="M31.5393 21.177C32.6926 21.177 33.6276 20.242 33.6276 19.0886C33.6276 17.9352 32.6926 17.0002 31.5393 17.0002C30.3859 17.0002 29.4509 17.9352 29.4509 19.0886C29.4509 20.242 30.3859 21.177 31.5393 21.177Z" fill="black"/>
</svg>
