<svg width="26" height="27" viewBox="0 0 26 27" fill="none" xmlns="http://www.w3.org/2000/svg">
<path d="M12.9932 1.6377C10.7434 1.6377 8.54417 2.30483 6.67356 3.55473C4.80295 4.80463 3.34499 6.58116 2.48404 8.65967C1.62309 10.7382 1.39783 13.0253 1.83674 15.2318C2.27564 17.4384 3.35901 19.4652 4.94983 21.056C6.54065 22.6469 8.56748 23.7302 10.774 24.1691C12.9806 24.608 15.2677 24.3828 17.3462 23.5218C19.4247 22.6609 21.2012 21.2029 22.4511 19.3323C23.701 17.4617 24.3682 15.2625 24.3682 13.0127C24.3682 9.99586 23.1697 7.10258 21.0365 4.96936C18.9033 2.83613 16.01 1.6377 12.9932 1.6377ZM19.0439 13.7399L9.29386 18.6149C9.16995 18.6768 9.03228 18.706 8.89391 18.6997C8.75554 18.6935 8.62107 18.6519 8.50327 18.5791C8.38547 18.5062 8.28825 18.4044 8.22085 18.2834C8.15345 18.1624 8.1181 18.0262 8.11817 17.8877V8.1377C8.11824 7.99925 8.15369 7.86312 8.22115 7.74223C8.28861 7.62133 8.38584 7.51968 8.50362 7.44691C8.62139 7.37415 8.75581 7.33268 8.89411 7.32645C9.03241 7.32022 9.17001 7.34944 9.29386 7.41132L19.0439 12.2863C19.1786 12.3539 19.292 12.4576 19.3712 12.5859C19.4504 12.7142 19.4923 12.8619 19.4923 13.0127C19.4923 13.1635 19.4504 13.3112 19.3712 13.4395C19.292 13.5678 19.1786 13.6715 19.0439 13.7391" fill="black"/>
</svg>
